<svg xmlns="http://www.w3.org/2000/svg" xmlns:xlink="http://www.w3.org/1999/xlink" height="32px" width="32px" version="1.1" id="Layer_1" viewBox="0 0 512 512" xml:space="preserve">
<path style="fill:#FFE0B2;" d="M323.921,258.977L75.786,507.113c-6.517,6.517-17.1,6.517-23.628,0L4.89,459.845  c-6.517-6.528-6.517-17.111,0-23.628l248.135-248.135L323.921,258.977z"/>
<path style="fill:#FDCD99;" d="M323.921,258.977L75.786,507.113c-6.517,6.517-17.1,6.517-23.628,0l-23.628-23.639L288.473,223.53  L323.921,258.977z"/>
<path style="fill:#E6563A;" d="M297.25,275.902c-18.69,0-34.149-5.5-44.898-16.253c-36.064-36.07-4.765-113.386,23.629-141.786  c15.786-15.786,36.771-24.473,59.084-24.473c22.313,0,43.298,8.693,59.073,24.473c32.571,32.577,32.571,85.58,0,118.157l0,0  c-15.459,15.459-41.025,29.161-66.743,35.76C316.67,274.537,306.552,275.902,297.25,275.902z M382.324,224.205h0.109H382.324z"/>
<path style="fill:#FFC033;" d="M239.353,100.309c-4.276,0-8.551-1.632-11.814-4.896l-47.27-47.263  c-6.527-6.521-6.527-17.102,0-23.629s17.102-6.527,23.629,0l47.27,47.264c6.527,6.521,6.527,17.102,0,23.629  C247.903,98.677,243.628,100.309,239.353,100.309z"/>
<path style="fill:#F9A926;" d="M475.667,336.629c-4.276,0-8.551-1.632-11.814-4.896l-47.27-47.264  c-6.527-6.521-6.527-17.102,0-23.629c6.527-6.527,17.102-6.527,23.629,0l47.27,47.264c6.527,6.521,6.527,17.102,0,23.629  C484.217,334.997,479.941,336.629,475.667,336.629z"/>
<path style="fill:#FFC033;" d="M204.757,160.241c-1.436,0-2.883-0.185-4.34-0.577l-32.279-8.649  c-8.91-2.388-14.197-11.548-11.814-20.463c2.393-8.921,11.542-14.214,20.474-11.814l32.279,8.649  c8.91,2.388,14.197,11.548,11.814,20.463C218.888,155.319,212.133,160.241,204.757,160.241z"/>
<g>
	<path style="fill:#F9A926;" d="M495.292,238.092c-1.436,0-2.883-0.185-4.34-0.577l-32.279-8.649   c-8.91-2.388-14.197-11.548-11.814-20.463c2.393-8.921,11.542-14.191,20.474-11.814l32.279,8.649   c8.91,2.388,14.197,11.548,11.814,20.463C509.424,233.169,502.668,238.092,495.292,238.092z"/>
	<path style="fill:#F9A926;" d="M462.993,160.241c-7.376,0-14.132-4.923-16.133-12.391c-2.383-8.915,2.904-18.076,11.814-20.463   l32.279-8.649c8.964-2.404,18.08,2.894,20.474,11.814c2.383,8.915-2.904,18.076-11.814,20.463l-32.279,8.649   C465.875,160.057,464.429,160.241,462.993,160.241z"/>
</g>
<path style="fill:#FFC033;" d="M368.487,65.714c-1.436,0-2.883-0.185-4.34-0.577c-8.91-2.388-14.197-11.548-11.814-20.463  l8.649-32.279c2.393-8.921,11.532-14.219,20.474-11.814c8.91,2.388,14.197,11.548,11.814,20.463l-8.649,32.279  C382.618,60.791,375.863,65.714,368.487,65.714z"/>
<path style="fill:#F9A926;" d="M377.114,356.249c-7.376,0-14.132-4.923-16.133-12.391l-8.649-32.279  c-2.383-8.915,2.904-18.076,11.814-20.463c8.964-2.383,18.08,2.894,20.474,11.814l8.649,32.279  c2.383,8.915-2.904,18.076-11.814,20.463C379.997,356.064,378.55,356.249,377.114,356.249z"/>
<path style="fill:#FFC033;" d="M299.263,65.714c-7.376,0-14.132-4.923-16.133-12.391l-8.649-32.279  c-2.383-8.915,2.904-18.076,11.814-20.463c8.976-2.41,18.08,2.894,20.474,11.814l8.649,32.279  c2.383,8.915-2.904,18.076-11.814,20.463C302.146,65.529,300.699,65.714,299.263,65.714z"/>
<path style="fill:#D9472B;" d="M297.25,275.902c9.302,0,19.418-1.366,30.146-4.124c25.718-6.598,51.284-20.3,66.743-35.759  c32.572-32.577,32.572-85.58,0-118.158L252.353,259.649C263.101,270.402,278.559,275.902,297.25,275.902z"/>
<path style="fill:#FFC033;" d="M418.449,93.552L418.449,93.552c-6.526-6.526-6.526-17.106,0-23.632l47.263-47.263  c6.526-6.526,17.106-6.526,23.632,0l0,0c6.526,6.526,6.526,17.106,0,23.632l-47.263,47.263  C435.555,100.078,424.975,100.078,418.449,93.552z"/>
<path style="fill:#F9A926;" d="M442.081,93.552l47.263-47.263c6.526-6.526,6.525-17.107,0-23.632l-70.896,70.896  C424.975,100.078,435.555,100.078,442.081,93.552z"/>
</svg>